<svg width="24" height="25" viewBox="0 0 24 25" fill="none" xmlns="http://www.w3.org/2000/svg">
<g clip-path="url(#clip0_3002_428)">
<path d="M19.2 6.92911L6.39992 19.7292C6.18654 19.9392 5.8991 20.0569 5.59968 20.0567C5.30027 20.0566 5.01293 19.9387 4.79974 19.7284C4.58981 19.5152 4.47215 19.228 4.47215 18.9287C4.47215 18.6295 4.58981 18.3422 4.79974 18.129L17.5984 5.33034C17.8116 5.12041 18.0989 5.00276 18.3981 5.00276C18.6973 5.00276 18.9846 5.12042 19.1978 5.33034C19.4078 5.54328 19.5257 5.83022 19.5261 6.12929C19.5265 6.42836 19.4094 6.71561 19.2 6.92911Z" fill="#0B032D"/>
<path d="M19.2 19.7294C18.9866 19.9394 18.6991 20.0571 18.3997 20.057C18.1003 20.0568 17.813 19.9389 17.5998 19.7287L4.79974 6.92864C4.58981 6.71539 4.47215 6.42815 4.47215 6.12891C4.47215 5.82966 4.58981 5.54242 4.79974 5.32917C5.01293 5.11894 5.30027 5.00101 5.59968 5.00088C5.8991 5.00075 6.18654 5.11842 6.39992 5.32846L19.1986 18.1271C19.4095 18.3403 19.528 18.628 19.5282 18.928C19.5285 19.2279 19.4106 19.5158 19.2 19.7294Z" fill="#0B032D"/>
</g>
<defs>
<clipPath id="clip0_3002_428">
<rect width="24" height="24" fill="white" transform="translate(0 0.528809)"/>
</clipPath>
</defs>
</svg>
