<svg width="24" height="25" viewBox="0 0 24 25" fill="none" xmlns="http://www.w3.org/2000/svg">
<g clip-path="url(#clip0_3002_1294)">
<path d="M11.25 18.7788H9C8.47005 18.7804 7.96227 18.9916 7.58753 19.3663C7.2128 19.741 7.00158 20.2488 7 20.7788V21.0288H6C5.80109 21.0288 5.61032 21.1078 5.46967 21.2484C5.32902 21.3891 5.25 21.5799 5.25 21.7788C5.25 21.9777 5.32902 22.1684 5.46967 22.3091C5.61032 22.4498 5.80109 22.5288 6 22.5288H18C18.1989 22.5288 18.3897 22.4498 18.5303 22.3091C18.671 22.1684 18.75 21.9777 18.75 21.7788C18.75 21.5799 18.671 21.3891 18.5303 21.2484C18.3897 21.1078 18.1989 21.0288 18 21.0288H17V20.7788C16.9984 20.2488 16.7872 19.741 16.4125 19.3663C16.0377 18.9916 15.5299 18.7804 15 18.7788H12.75V16.4888C12.501 16.517 12.2506 16.5304 12 16.5288C11.7494 16.5304 11.499 16.517 11.25 16.4888V18.7788Z" fill="#0B032D"/>
<path d="M18.4801 12.1688C19.1191 11.9188 19.6983 11.5372 20.1801 11.0488C21.144 10.0553 21.6945 8.73278 21.7201 7.34881C21.7236 7.01034 21.6595 6.67459 21.5316 6.36121C21.4037 6.04784 21.2145 5.76314 20.9751 5.52379C20.7358 5.28445 20.4511 5.09528 20.1377 4.96736C19.8244 4.83943 19.4886 4.77533 19.1501 4.77881H18.5901C18.2624 4.10526 17.7522 3.53725 17.1175 3.13946C16.4828 2.74168 15.7492 2.5301 15.0001 2.52881H9.00013C8.25109 2.5301 7.51746 2.74168 6.88277 3.13946C6.24808 3.53725 5.73784 4.10526 5.41013 4.77881H4.85013C4.51167 4.77533 4.17591 4.83943 3.86254 4.96736C3.54916 5.09528 3.26446 5.28445 3.02512 5.52379C2.78578 5.76314 2.5966 6.04784 2.46868 6.36121C2.34076 6.67459 2.27666 7.01034 2.28013 7.34881C2.30581 8.73278 2.85627 10.0553 3.82013 11.0488C4.30199 11.5372 4.8812 11.9188 5.52013 12.1688C6.04595 13.4558 6.94306 14.557 8.09712 15.3321C9.25118 16.1073 10.6099 16.5212 12.0001 16.5212C13.3904 16.5212 14.7491 16.1073 15.9031 15.3321C17.0572 14.557 17.9543 13.4558 18.4801 12.1688ZM14.8401 8.97881L14.2201 9.73881C14.1129 9.87549 14.0563 10.0451 14.0601 10.2188L14.1201 11.1988C14.1458 11.3203 14.1357 11.4466 14.0911 11.5625C14.0465 11.6784 13.9693 11.7789 13.8689 11.8518C13.7684 11.9248 13.649 11.9671 13.525 11.9737C13.401 11.9802 13.2777 11.9508 13.1701 11.8888L12.2601 11.5288C12.0904 11.4788 11.9099 11.4788 11.7401 11.5288L10.8301 11.8888C10.7225 11.9508 10.5993 11.9802 10.4753 11.9737C10.3513 11.9671 10.2319 11.9248 10.1314 11.8518C10.0309 11.7789 9.95376 11.6784 9.90917 11.5625C9.86458 11.4466 9.85449 11.3203 9.88013 11.1988L9.94013 10.2188C9.94393 10.0451 9.88738 9.87549 9.78013 9.73881L9.16013 8.97881C9.06741 8.89579 9.00074 8.78768 8.96817 8.66756C8.9356 8.54744 8.93854 8.42045 8.97663 8.30197C9.01471 8.18348 9.08631 8.07857 9.18277 7.99992C9.27923 7.92127 9.39641 7.87226 9.52013 7.85881L10.4701 7.61881C10.6374 7.56379 10.7816 7.45474 10.8801 7.30881L11.4101 6.48881C11.461 6.3748 11.5437 6.27797 11.6485 6.21002C11.7532 6.14206 11.8753 6.1059 12.0001 6.1059C12.125 6.1059 12.2471 6.14206 12.3518 6.21002C12.4565 6.27797 12.5393 6.3748 12.5901 6.48881L13.1201 7.30881C13.2186 7.45474 13.3629 7.56379 13.5301 7.61881L14.4801 7.85881C14.6039 7.87226 14.721 7.92127 14.8175 7.99992C14.914 8.07857 14.9856 8.18348 15.0236 8.30197C15.0617 8.42045 15.0647 8.54744 15.0321 8.66756C14.9995 8.78768 14.9329 8.89579 14.8401 8.97881Z" fill="#0B032D"/>
</g>
<defs>
<clipPath id="clip0_3002_1294">
<rect width="24" height="24" fill="white" transform="translate(0 0.528809)"/>
</clipPath>
</defs>
</svg>
