<svg width="24" height="25" viewBox="0 0 24 25" fill="none" xmlns="http://www.w3.org/2000/svg">
<g clip-path="url(#clip0_3002_1354)">
<path d="M16.18 22.5287H7.81C4.172 22.5287 2.00101 20.3526 2.00101 16.7087V8.33866C2.00101 4.70066 4.173 2.52866 7.81 2.52866H16.19C16.9688 2.48882 17.7478 2.60465 18.4813 2.86942C19.2148 3.13418 19.8882 3.54256 20.462 4.07065C20.9878 4.64469 21.3938 5.31786 21.6564 6.05069C21.9189 6.78353 22.0327 7.56133 21.991 8.33866V16.7187C21.99 20.3567 19.818 22.5287 16.18 22.5287ZM8 15.9027C7.80172 15.9053 7.61231 15.9852 7.47218 16.1255C7.33206 16.2658 7.25233 16.4554 7.25 16.6537C7.25259 16.8518 7.33244 17.041 7.47253 17.1811C7.61263 17.3212 7.80189 17.4011 8 17.4037H16C16.1988 17.4034 16.3894 17.3243 16.53 17.1837C16.6706 17.0431 16.7497 16.8525 16.75 16.6537C16.75 16.4547 16.671 16.2638 16.5304 16.123C16.3898 15.9821 16.199 15.9029 16 15.9027H8ZM8.5 7.90769C8.00288 7.90689 7.52575 8.10331 7.17329 8.45389C6.82084 8.80447 6.62185 9.28056 6.62 9.77768C6.6192 10.2775 6.8167 10.7571 7.16916 11.1114C7.52161 11.4658 8.00023 11.6658 8.5 11.6676C8.99844 11.6671 9.47633 11.4689 9.82878 11.1164C10.1812 10.764 10.3795 10.2861 10.38 9.78763C10.3792 9.28936 10.1809 8.81174 9.82843 8.45951C9.47601 8.10727 8.99827 7.90822 8.5 7.90769ZM15.5 7.88767C15.0016 7.8882 14.5237 8.08642 14.1712 8.43888C13.8188 8.79133 13.6205 9.26923 13.62 9.76767C13.6205 10.2661 13.8188 10.744 14.1712 11.0964C14.5237 11.4489 15.0016 11.6471 15.5 11.6477C15.9983 11.6469 16.4759 11.4485 16.8281 11.0961C17.1804 10.7437 17.3785 10.2659 17.379 9.76767C17.3782 9.26957 17.18 8.79206 16.8278 8.43985C16.4756 8.08764 15.9981 7.88846 15.5 7.88767Z" fill="#FCA018"/>
</g>
<defs>
<clipPath id="clip0_3002_1354">
<rect width="24" height="24" fill="white" transform="translate(0 0.528809)"/>
</clipPath>
</defs>
</svg>
