<svg width="24" height="25" viewBox="0 0 24 25" fill="none" xmlns="http://www.w3.org/2000/svg">
<g clip-path="url(#clip0_3002_1358)">
<path d="M16.19 2.52881H7.81C4.17 2.52881 2 4.69881 2 8.33881V16.7088C2 20.3588 4.17 22.5288 7.81 22.5288H16.18C19.82 22.5288 21.99 20.3588 21.99 16.7188V8.33881C22 4.69881 19.83 2.52881 16.19 2.52881ZM6.47 9.80881C6.33052 9.66767 6.2523 9.47724 6.2523 9.27881C6.2523 9.08038 6.33052 8.88995 6.47 8.74881C7.09514 8.1291 7.93975 7.78141 8.82 7.78141C9.70025 7.78141 10.5449 8.1291 11.17 8.74881C11.3095 8.88995 11.3877 9.08038 11.3877 9.27881C11.3877 9.47724 11.3095 9.66767 11.17 9.80881C11.1005 9.87859 11.0179 9.93396 10.927 9.97175C10.836 10.0095 10.7385 10.029 10.64 10.029C10.5415 10.029 10.444 10.0095 10.353 9.97175C10.2621 9.93396 10.1795 9.87859 10.11 9.80881C9.76727 9.46782 9.30347 9.2764 8.82 9.2764C8.33653 9.2764 7.87273 9.46782 7.53 9.80881C7.46127 9.87994 7.37892 9.93651 7.28787 9.97514C7.19681 10.0138 7.09891 10.0337 7 10.0337C6.90109 10.0337 6.80319 10.0138 6.71213 9.97514C6.62108 9.93651 6.53873 9.87994 6.47 9.80881ZM15.6 18.6088H8.4C8.23253 18.6083 8.0668 18.5747 7.9123 18.5101C7.7578 18.4455 7.61756 18.351 7.49961 18.2321C7.38165 18.1132 7.28829 17.9723 7.22487 17.8173C7.16145 17.6623 7.12921 17.4963 7.13 17.3288C7.13 16.0346 7.64414 14.7933 8.55932 13.8781C9.4745 12.9629 10.7157 12.4488 12.01 12.4488C13.3043 12.4488 14.5455 12.9629 15.4607 13.8781C16.3759 14.7933 16.89 16.0346 16.89 17.3288C16.8848 17.6684 16.7469 17.9924 16.5058 18.2317C16.2647 18.4709 15.9396 18.6062 15.6 18.6088ZM17.53 9.80881C17.3889 9.94829 17.1984 10.0265 17 10.0265C16.8016 10.0265 16.6111 9.94829 16.47 9.80881C16.1273 9.46782 15.6635 9.2764 15.18 9.2764C14.6965 9.2764 14.2327 9.46782 13.89 9.80881C13.8205 9.87859 13.7379 9.93396 13.647 9.97175C13.556 10.0095 13.4585 10.029 13.36 10.029C13.2615 10.029 13.164 10.0095 13.073 9.97175C12.9821 9.93396 12.8995 9.87859 12.83 9.80881C12.6905 9.66767 12.6123 9.47724 12.6123 9.27881C12.6123 9.08038 12.6905 8.88995 12.83 8.74881C13.4551 8.1291 14.2998 7.78141 15.18 7.78141C16.0602 7.78141 16.9049 8.1291 17.53 8.74881C17.6695 8.88995 17.7477 9.08038 17.7477 9.27881C17.7477 9.47724 17.6695 9.66767 17.53 9.80881Z" fill="#F34158"/>
</g>
<defs>
<clipPath id="clip0_3002_1358">
<rect width="24" height="24" fill="white" transform="translate(0 0.528809)"/>
</clipPath>
</defs>
</svg>
