<svg width="24" height="25" viewBox="0 0 24 25" fill="none" xmlns="http://www.w3.org/2000/svg">
<g clip-path="url(#clip0_3002_1350)">
<path d="M16.19 2.52881H7.81C4.17 2.52881 2 4.69881 2 8.33881V16.7088C2 20.3588 4.17 22.5288 7.81 22.5288H16.18C19.82 22.5288 21.99 20.3588 21.99 16.7188V8.33881C22 4.69881 19.83 2.52881 16.19 2.52881ZM8.5 6.90881C8.87225 6.90881 9.23613 7.01933 9.5455 7.22635C9.85488 7.43338 10.0958 7.72758 10.2378 8.07169C10.3798 8.4158 10.4165 8.79432 10.3431 9.15927C10.2698 9.52423 10.0897 9.85919 9.82578 10.1217C9.56186 10.3842 9.22594 10.5625 8.8606 10.6339C8.49526 10.7053 8.11695 10.6666 7.7736 10.5228C7.43025 10.379 7.13733 10.1365 6.93196 9.82599C6.72659 9.51551 6.61802 9.15106 6.62 8.77881C6.62369 8.28226 6.82326 7.80725 7.17532 7.45707C7.52737 7.10688 8.00344 6.90985 8.5 6.90881ZM12 19.6088C10.7063 19.607 9.46614 19.0922 8.55136 18.1774C7.63659 17.2627 7.12185 16.0225 7.12 14.7288C7.11999 14.3911 7.25347 14.067 7.49136 13.8272C7.72925 13.5875 8.05226 13.4514 8.39 13.4488H15.59C15.7575 13.4493 15.9232 13.4829 16.0777 13.5475C16.2322 13.6121 16.3724 13.7066 16.4904 13.8255C16.6084 13.9444 16.7017 14.0854 16.7651 14.2404C16.8286 14.3954 16.8608 14.5613 16.86 14.7288C16.863 15.3688 16.7395 16.0031 16.4966 16.5953C16.2537 17.1874 15.8962 17.7257 15.4445 18.1792C14.9929 18.6327 14.4561 18.9924 13.8649 19.2378C13.2738 19.4831 12.64 19.6092 12 19.6088ZM15.5 10.6488C15.1282 10.6488 14.7647 10.5385 14.4555 10.332C14.1464 10.1254 13.9054 9.83178 13.7631 9.48825C13.6208 9.14473 13.5836 8.76672 13.6561 8.40204C13.7287 8.03735 13.9077 7.70237 14.1706 7.43945C14.4336 7.17653 14.7685 6.99747 15.1332 6.92493C15.4979 6.85239 15.8759 6.88962 16.2194 7.03192C16.563 7.17421 16.8566 7.41517 17.0632 7.72434C17.2697 8.0335 17.38 8.39698 17.38 8.76881C17.3789 9.26709 17.1805 9.74466 16.8282 10.097C16.4759 10.4493 15.9983 10.6478 15.5 10.6488Z" fill="#25B577"/>
</g>
<defs>
<clipPath id="clip0_3002_1350">
<rect width="24" height="24" fill="white" transform="translate(0 0.528809)"/>
</clipPath>
</defs>
</svg>
