<svg width="21" height="21" viewBox="0 0 21 21" fill="none" xmlns="http://www.w3.org/2000/svg">
<g clip-path="url(#clip0_6_11551)">
<path d="M6.4917 2.16656H8.65837C9.23917 2.12035 9.82309 2.20074 10.3698 2.40216C10.9165 2.60359 11.413 2.92127 11.825 3.33326C12.237 3.74525 12.5547 4.24174 12.7561 4.78845C12.9575 5.33517 13.0379 5.91909 12.9917 6.49989V9.87489H9.2917L11.0167 8.14989C11.0749 8.09198 11.121 8.02315 11.1525 7.94736C11.184 7.87156 11.2002 7.7903 11.2002 7.70823C11.2002 7.62615 11.184 7.54489 11.1525 7.4691C11.121 7.3933 11.0749 7.32447 11.0167 7.26656C10.8991 7.15033 10.7404 7.08514 10.575 7.08514C10.4097 7.08514 10.251 7.15033 10.1334 7.26656L7.3417 10.0582C7.22547 10.1758 7.16028 10.3345 7.16028 10.4999C7.16028 10.6653 7.22547 10.8239 7.3417 10.9416L10.1334 13.7332C10.2518 13.8436 10.4086 13.9037 10.5705 13.9009C10.7324 13.898 10.8869 13.8324 11.0014 13.7179C11.1159 13.6034 11.1815 13.4489 11.1843 13.287C11.1872 13.1251 11.1271 12.9684 11.0167 12.8499L9.2917 11.1249H12.9917V14.4999C13.0379 15.0807 12.9575 15.6646 12.7561 16.2113C12.5547 16.758 12.237 17.2545 11.825 17.6665C11.413 18.0785 10.9165 18.3962 10.3698 18.5976C9.82309 18.799 9.23917 18.8794 8.65837 18.8332H6.50003C5.91923 18.8794 5.33531 18.799 4.78859 18.5976C4.24188 18.3962 3.74539 18.0785 3.3334 17.6665C2.92141 17.2545 2.60373 16.758 2.4023 16.2113C2.20088 15.6646 2.12049 15.0807 2.1667 14.4999V6.49989C2.11876 5.91941 2.19767 5.33546 2.39796 4.78852C2.59824 4.24159 2.9151 3.74476 3.32656 3.33251C3.73802 2.92026 4.23423 2.60244 4.78078 2.40111C5.32733 2.19978 5.91113 2.11974 6.4917 2.16656Z" fill="white"/>
<path d="M18.2 9.875C18.3655 9.87609 18.5238 9.94229 18.6408 10.0593C18.7577 10.1762 18.8239 10.3346 18.825 10.5C18.8239 10.6654 18.7577 10.8238 18.6408 10.9407C18.5238 11.0577 18.3655 11.1239 18.2 11.125H12.9917V9.875H18.2Z" fill="white"/>
</g>
<defs>
<clipPath id="clip0_6_11551">
<rect width="20" height="20" fill="white" transform="translate(0.5 0.5)"/>
</clipPath>
</defs>
</svg>
