<svg width="21" height="21" viewBox="0 0 21 21" fill="none" xmlns="http://www.w3.org/2000/svg">
<path d="M18 6.95825H3C2.65833 6.95825 2.375 6.67492 2.375 6.33325C2.375 5.99159 2.65833 5.70825 3 5.70825H18C18.3417 5.70825 18.625 5.99159 18.625 6.33325C18.625 6.67492 18.3417 6.95825 18 6.95825Z" fill="#0B032D"/>
<path d="M18 11.125H3C2.65833 11.125 2.375 10.8417 2.375 10.5C2.375 10.1583 2.65833 9.875 3 9.875H18C18.3417 9.875 18.625 10.1583 18.625 10.5C18.625 10.8417 18.3417 11.125 18 11.125Z" fill="#0B032D"/>
<path d="M18 15.2917H3C2.65833 15.2917 2.375 15.0084 2.375 14.6667C2.375 14.3251 2.65833 14.0417 3 14.0417H18C18.3417 14.0417 18.625 14.3251 18.625 14.6667C18.625 15.0084 18.3417 15.2917 18 15.2917Z" fill="#0B032D"/>
</svg>
