<svg width="24" height="25" viewBox="0 0 24 25" fill="none" xmlns="http://www.w3.org/2000/svg">
<g clip-path="url(#clip0_3002_910)">
<path d="M12 23.2788C9.50035 23.2788 7.10306 22.2858 5.33553 20.5183C3.568 18.7507 2.57501 16.3535 2.57501 13.8538C2.57501 11.3541 3.568 8.95685 5.33553 7.18932C7.10306 5.42179 9.50035 4.4288 12 4.4288C13.0539 4.4245 14.1025 4.57959 15.11 4.8888C15.2975 4.95003 15.4534 5.08237 15.5444 5.25735C15.6353 5.43234 15.6539 5.63602 15.5963 5.82461C15.5387 6.01321 15.4094 6.17167 15.2362 6.26595C15.063 6.36023 14.8597 6.38279 14.67 6.3288C13.8047 6.06391 12.9049 5.92911 12 5.9288C10.2373 5.93103 8.52574 6.52202 7.13718 7.60795C5.74863 8.69388 4.76259 10.2125 4.3356 11.9228C3.90861 13.633 4.06514 15.4369 4.78035 17.0481C5.49555 18.6593 6.72843 19.9853 8.28329 20.8159C9.83815 21.6464 11.6259 21.9337 13.3627 21.6323C15.0995 21.3308 16.6858 20.4579 17.8699 19.152C19.0539 17.8461 19.7679 16.1822 19.8983 14.4242C20.0288 12.6663 19.5683 10.9152 18.59 9.4488C18.4799 9.28304 18.4402 9.08034 18.4796 8.88531C18.519 8.69027 18.6343 8.51886 18.8 8.4088C18.9658 8.29873 19.1685 8.25902 19.3635 8.29841C19.5585 8.33779 19.7299 8.45304 19.84 8.6188C20.7891 10.0379 21.3348 11.6883 21.4188 13.3934C21.5028 15.0986 21.1218 16.7946 20.3167 18.3001C19.5116 19.8056 18.3125 21.064 16.8477 21.9409C15.3828 22.8179 13.7073 23.2803 12 23.2788Z" fill="#0B032D"/>
<path d="M16.13 6.59887C16.022 6.59841 15.9153 6.57499 15.817 6.53016C15.7188 6.48534 15.6311 6.42013 15.56 6.33887L12.67 3.01887C12.5387 2.86902 12.4723 2.67316 12.4855 2.47437C12.4986 2.27559 12.5901 2.09015 12.74 1.95887C12.8898 1.82759 13.0857 1.76121 13.2845 1.77434C13.4833 1.78747 13.6687 1.87902 13.8 2.02887L16.686 5.34887C16.8161 5.49926 16.8817 5.69484 16.8685 5.89324C16.8554 6.09164 16.7647 6.27689 16.616 6.40887C16.4853 6.53366 16.3107 6.60192 16.13 6.59887Z" fill="#0B032D"/>
<path d="M12.76 9.05881C12.6011 9.05952 12.446 9.00999 12.3168 8.91728C12.1877 8.82458 12.0912 8.69345 12.0411 8.54262C11.991 8.39179 11.9898 8.22898 12.0377 8.07744C12.0857 7.9259 12.1802 7.79338 12.308 7.69881L15.68 5.23881C15.8404 5.12079 16.0412 5.07134 16.2381 5.10135C16.435 5.13135 16.612 5.23835 16.73 5.39881C16.848 5.55927 16.8975 5.76003 16.8675 5.95695C16.8374 6.15386 16.7304 6.33079 16.57 6.44881L13.2 8.91881C13.0734 9.0139 12.9183 9.06325 12.76 9.05881Z" fill="#0B032D"/>
</g>
<defs>
<clipPath id="clip0_3002_910">
<rect width="24" height="24" fill="white" transform="translate(0 0.528809)"/>
</clipPath>
</defs>
</svg>
