<svg width="24" height="25" viewBox="0 0 24 25" fill="none" xmlns="http://www.w3.org/2000/svg">
<g clip-path="url(#clip0_3002_1079)">
<path d="M9.62301 18.5288C9.45823 18.5288 9.29508 18.4963 9.14289 18.4331C8.99069 18.37 8.85243 18.2775 8.73601 18.1608L3.99701 13.4228C3.76163 13.1875 3.62939 12.8682 3.62939 12.5353C3.62939 12.2025 3.76163 11.8832 3.99701 11.6478C4.23239 11.4125 4.55163 11.2802 4.88451 11.2802C5.21739 11.2802 5.53663 11.4125 5.77201 11.6478L9.62301 15.4988L18.233 6.89285C18.4722 6.67767 18.7848 6.56255 19.1064 6.57126C19.428 6.57997 19.7339 6.71184 19.9611 6.93963C20.1883 7.16743 20.3193 7.47377 20.3271 7.79537C20.3349 8.11698 20.2189 8.42931 20.003 8.66785L10.51 18.1608C10.3936 18.2775 10.2553 18.37 10.1031 18.4331C9.95093 18.4963 9.78778 18.5288 9.62301 18.5288Z" fill="#0B032D"/>
</g>
<defs>
<clipPath id="clip0_3002_1079">
<rect width="24" height="24" fill="white" transform="translate(0 0.528809)"/>
</clipPath>
</defs>
</svg>
